<?xml version="1.0" encoding="utf-8"?>
<!-- Generator: Adobe Illustrator 24.1.1, SVG Export Plug-In . SVG Version: 6.00 Build 0)  -->
<svg version="1.1" id="Layer_1" xmlns="http://www.w3.org/2000/svg" xmlns:xlink="http://www.w3.org/1999/xlink" x="0px" y="0px"
	 viewBox="0 0 841.89 213.33" style="enable-background:new 0 0 841.89 213.33;" xml:space="preserve">
<style type="text/css">
	.st0{fill:#8DC63F;}
	.st1{fill:#424142;}
	.st2{fill:#AD1F23;}
	.st3{fill:#FFFFFF;}
	.st4{font-family:'Foro-Medium';}
	.st5{font-size:85px;}
	.st6{fill:#AD1F24;}
</style>
<g>
	<g>
		<g>
			<g>
				<g>
					<path class="st0" d="M212.78,105.51c-1.02,46.87-39.11,84.55-85.95,84.55v-84.55H212.78z"/>
				</g>
				<g>
					<path class="st1" d="M51.4,118.67c0-0.45,0.01-0.9,0.02-1.35h64.14v61.61C80.12,178.93,51.4,151.95,51.4,118.67z"/>
				</g>
				<g>
					<path class="st2" d="M40.89,105.9C41.91,59.02,80,21.34,126.83,21.34v84.55H40.89z"/>
				</g>
			</g>
		</g>
		<g>
			<g>
				<g>
					<g>
						<path class="st2" d="M181.9,78.99c-1.06-2.2-4.84-5.26-8.5-8.22c-2.04-1.65-3.96-3.21-5.19-4.43
							c-0.31-0.31-0.77-0.41-1.17-0.26c-0.76,0.27-1.22,0.48-1.59,0.65c-0.56,0.25-0.75,0.34-1.51,0.41
							c-0.33,0.03-0.64,0.21-0.82,0.49c-1.59,2.37-3.23,2.17-4.33,1.8c-0.35-0.12-0.41-0.27-0.45-0.41
							c-0.24-0.99,0.95-3.28,2.48-4.81c3.65-3.65,5.53-4.56,9.5-2.79c4.51,2.02,9.02,3.59,9.07,3.61c0.59,0.2,1.23-0.11,1.43-0.69
							c0.2-0.59-0.11-1.23-0.69-1.43c-0.04-0.02-4.47-1.56-8.89-3.54c-5.15-2.3-7.97-0.79-12.01,3.25
							c-1.54,1.54-3.62,4.64-3.08,6.92c0.23,0.97,0.91,1.69,1.93,2.02c2.54,0.84,4.86,0.04,6.59-2.26c0.71-0.11,1.1-0.27,1.69-0.53
							c0.21-0.09,0.46-0.2,0.79-0.34c1.28,1.21,3.02,2.61,4.84,4.08c3.3,2.67,7.04,5.7,7.88,7.45c0.42,0.86-0.03,1.43-0.33,1.69
							c-0.44,0.38-1.05,0.5-1.38,0.27c-0.36-0.25-0.84-0.26-1.21-0.04c-0.38,0.22-0.59,0.65-0.54,1.08
							c0.08,0.71-0.58,1.12-0.86,1.26c-0.72,0.36-1.47,0.3-1.75,0.04c-0.31-0.29-0.77-0.38-1.17-0.23c-0.4,0.15-0.68,0.52-0.72,0.95
							c-0.07,0.74-0.61,1.44-1.32,1.72c-0.34,0.13-0.84,0.21-1.29-0.2c-0.28-0.25-0.66-0.35-1.03-0.26
							c-0.37,0.09-0.66,0.35-0.79,0.71c-0.04,0.11-0.14,0.38-1.19,0.38c-0.75,0-2.09-0.51-2.75-0.94c-0.79-0.52-5.73-4.2-10-7.78
							c-0.6-0.51-1.64-1.59-2.55-2.54c-0.81-0.85-1.56-1.62-1.94-1.94c-0.48-0.4-1.19-0.34-1.58,0.13c-0.4,0.47-0.34,1.18,0.13,1.58
							c0.35,0.29,1.02,1.01,1.76,1.78c1,1.05,2.04,2.13,2.73,2.71c4.18,3.5,9.2,7.28,10.21,7.94c0.83,0.54,2.61,1.31,3.98,1.31
							c1.11,0,1.96-0.25,2.55-0.75c0.79,0.31,1.69,0.31,2.55-0.03c1.02-0.4,1.86-1.19,2.34-2.16c0.88,0.19,1.9,0.06,2.82-0.41
							c0.9-0.45,1.55-1.15,1.87-1.96c0.89,0.05,1.81-0.27,2.57-0.92C182.29,82.25,182.65,80.54,181.9,78.99z"/>
					</g>
				</g>
				<g>
					<g>
						<path class="st2" d="M161.81,60.39h-10.1c-0.62,0-1.12,0.5-1.12,1.12s0.5,1.12,1.12,1.12h10.1c0.62,0,1.12-0.5,1.12-1.12
							S162.43,60.39,161.81,60.39z"/>
					</g>
				</g>
				<g>
					<g>
						<path class="st2" d="M185.19,76.6c-0.35-0.51-1.04-0.66-1.56-0.31l-3.28,2.2c-0.51,0.35-0.65,1.04-0.31,1.56
							c0.22,0.32,0.57,0.5,0.93,0.5c0.21,0,0.43-0.06,0.62-0.19l3.28-2.2C185.4,77.81,185.54,77.12,185.19,76.6z"/>
					</g>
				</g>
				<g>
					<g>
						<path class="st2" d="M178.22,81.96c-0.8-0.63-4.4-4.31-6.62-6.63c-0.43-0.45-1.14-0.46-1.59-0.03
							c-0.45,0.43-0.46,1.14-0.03,1.59c0.58,0.6,5.67,5.91,6.85,6.84c0.2,0.16,0.45,0.24,0.69,0.24c0.33,0,0.66-0.15,0.88-0.43
							C178.79,83.05,178.71,82.34,178.22,81.96z"/>
					</g>
				</g>
				<g>
					<g>
						<path class="st2" d="M173.74,84.21c-1.34-1.08-4.72-4.67-5.49-5.5c-0.42-0.46-1.13-0.48-1.59-0.07
							c-0.46,0.42-0.49,1.13-0.07,1.59c0.04,0.04,4.07,4.4,5.74,5.73c0.21,0.16,0.46,0.24,0.7,0.24c0.33,0,0.66-0.15,0.88-0.42
							C174.3,85.3,174.22,84.6,173.74,84.21z"/>
					</g>
				</g>
				<g>
					<g>
						<path class="st2" d="M169.27,86.47c-1.6-1.35-4.88-4.84-5.52-5.52c-0.42-0.45-1.14-0.48-1.59-0.05
							c-0.45,0.42-0.48,1.13-0.05,1.59c0.92,0.99,4.05,4.31,5.71,5.7c0.21,0.18,0.47,0.26,0.72,0.26c0.32,0,0.64-0.14,0.86-0.4
							C169.81,87.58,169.74,86.87,169.27,86.47z"/>
					</g>
				</g>
				<g>
					<g>
						<path class="st2" d="M152.48,58.45c-1.92-1.82-9.62-2.41-11.93-2.55c-0.32-0.02-0.61,0.09-0.84,0.3
							c-0.22,0.21-0.35,0.51-0.35,0.82v20.21c0,0.62,0.5,1.12,1.12,1.12h6.74c0.48,0,0.92-0.31,1.07-0.77
							c0.16-0.5,4.03-12.37,4.54-18.21C152.86,59.02,152.73,58.69,152.48,58.45z M146.4,76.11h-4.79V58.23
							c3.61,0.29,7.5,0.9,8.92,1.59C149.93,64.74,147.23,73.47,146.4,76.11z"/>
					</g>
				</g>
				<g>
					<g>
						<path class="st2" d="M192.12,58.15c-8.81,0-13.7,2.26-13.91,2.35c-0.29,0.14-0.51,0.39-0.6,0.7s-0.04,0.64,0.12,0.91
							c1.39,2.23,5.73,14.64,6.57,17.67c0.13,0.49,0.58,0.82,1.08,0.82h6.74c0.62,0,1.12-0.5,1.12-1.12V59.27
							C193.24,58.65,192.74,58.15,192.12,58.15z M191,78.35h-4.77c-1.06-3.47-4.21-12.5-5.96-16.24c1.71-0.58,5.39-1.58,10.73-1.71
							V78.35z"/>
					</g>
				</g>
			</g>
		</g>
		<g>
			<path class="st3" d="M185.83,133.47l-22.08-13.65c-1.24-0.77-2.79-0.77-4.03,0l-3.66,2.27v-3.23c0-1.68-1.37-3.05-3.06-3.05
				h-2.09c-1.68,0-3.06,1.37-3.06,3.05v8.29l-10.22,6.32c-0.68,0.42-0.89,1.32-0.47,2c0.42,0.68,1.32,0.89,2,0.47l3.92-2.43v20.05
				h-0.48c-0.8,0-1.45,0.65-1.45,1.45s0.65,1.45,1.45,1.45h38.26c0.8,0,1.45-0.65,1.45-1.45s-0.65-1.45-1.45-1.45h-0.48v-20.05
				l3.92,2.43c0.24,0.15,0.5,0.22,0.76,0.22c0.49,0,0.96-0.24,1.24-0.69C186.72,134.79,186.51,133.9,185.83,133.47z M150.76,118.86
				c0-0.08,0.07-0.15,0.15-0.15H153c0.08,0,0.15,0.07,0.15,0.15v5.02l-2.39,1.48L150.76,118.86L150.76,118.86z M177.47,153.57
				h-31.49v-21.85l15.25-9.43c0.3-0.19,0.68-0.19,0.98,0l15.25,9.43V153.57z"/>
			<path class="st3" d="M160.3,130.61v2.07c-1.68,0.6-2.89,2.21-2.89,4.09c0,2.4,1.95,4.34,4.34,4.34c0.79,0,1.44,0.65,1.44,1.44
				c0,0.79-0.65,1.44-1.44,1.44h-2.89c-0.8,0-1.45,0.65-1.45,1.45c0,0.8,0.65,1.45,1.45,1.45h1.44v1.82c0,0.8,0.65,1.45,1.45,1.45
				c0.8,0,1.45-0.65,1.45-1.45v-2.07c1.68-0.6,2.89-2.21,2.89-4.09c0-2.4-1.95-4.34-4.34-4.34c-0.79,0-1.44-0.65-1.44-1.44
				c0-0.79,0.65-1.44,1.44-1.44h2.89c0.8,0,1.45-0.65,1.45-1.45c0-0.8-0.65-1.45-1.45-1.45h-1.44v-1.82c0-0.8-0.65-1.45-1.45-1.45
				C160.95,129.15,160.3,129.8,160.3,130.61z"/>
		</g>
		<g>
			<g>
				<g>
					<path class="st3" d="M98.32,79.37c-0.94,0-1.71-0.66-1.71-1.48c0-0.81,0.77-1.48,1.71-1.48c0.94,0,1.71,0.66,1.71,1.48
						c0,0.43,0.35,0.78,0.78,0.78s0.78-0.35,0.78-0.78c0-1.42-1.06-2.62-2.48-2.94v-0.4c0-0.43-0.35-0.78-0.78-0.78
						c-0.43,0-0.78,0.35-0.78,0.78v0.4c-1.42,0.32-2.48,1.52-2.48,2.94c0,1.67,1.46,3.03,3.26,3.03c0.94,0,1.71,0.66,1.71,1.48
						s-0.77,1.48-1.71,1.48c-0.94,0-1.71-0.66-1.71-1.48c0-0.43-0.35-0.78-0.78-0.78c-0.43,0-0.78,0.35-0.78,0.78
						c0,1.42,1.06,2.62,2.48,2.94v0.34c0,0.43,0.35,0.78,0.78,0.78c0.43,0,0.78-0.35,0.78-0.78v-0.34c1.42-0.32,2.48-1.52,2.48-2.94
						C101.58,80.73,100.12,79.37,98.32,79.37z"/>
				</g>
			</g>
			<g>
				<g>
					<path class="st3" d="M106.82,74.76c-1.01-1.58-2.44-2.84-4.13-3.65c-0.39-0.19-0.85-0.02-1.04,0.36
						c-0.19,0.39-0.02,0.85,0.36,1.04c2.94,1.41,4.84,4.43,4.84,7.69c0,1.4-0.34,2.78-0.99,4c-0.2,0.38-0.06,0.85,0.32,1.05
						c0.12,0.06,0.24,0.09,0.36,0.09c0.28,0,0.55-0.15,0.69-0.41c0.77-1.45,1.18-3.08,1.18-4.73
						C108.41,78.26,107.86,76.38,106.82,74.76z"/>
				</g>
			</g>
			<g>
				<g>
					<path class="st3" d="M99.54,70.12l-0.05,0c-0.43,0-0.78,0.35-0.78,0.78c0,0.43,0.35,0.78,0.78,0.78l0.04,0c0,0,0,0,0,0
						c0.43,0,0.77-0.34,0.78-0.77C100.32,70.47,99.97,70.12,99.54,70.12z"/>
				</g>
			</g>
			<g>
				<g>
					<path class="st3" d="M94.64,87.89c-2.94-1.41-4.84-4.43-4.84-7.69c0-1.4,0.34-2.78,0.99-4c0.2-0.38,0.06-0.85-0.32-1.05
						c-0.38-0.2-0.85-0.06-1.05,0.32c-0.77,1.45-1.18,3.08-1.18,4.73c0,1.94,0.55,3.82,1.59,5.44c1.01,1.58,2.44,2.84,4.13,3.65
						c0.11,0.05,0.22,0.08,0.34,0.08c0.29,0,0.57-0.16,0.7-0.44C95.19,88.54,95.02,88.08,94.64,87.89z"/>
				</g>
			</g>
			<g>
				<g>
					<path class="st3" d="M97.17,88.73l-0.04,0c-0.43,0-0.78,0.34-0.78,0.77c0,0.43,0.34,0.78,0.77,0.78l0.05,0
						c0.43,0,0.78-0.35,0.78-0.78C97.94,89.08,97.59,88.73,97.17,88.73z"/>
				</g>
			</g>
			<g>
				<g>
					<path class="st3" d="M101.85,67.49c-0.09-0.22-0.21-0.44-0.34-0.63h2.02c1.97,0,3.57-1.6,3.57-3.57c0-1.97-1.6-3.57-3.57-3.57
						h-6.21c0.39-0.57,0.63-1.27,0.63-2.02c0-1.97-1.6-3.57-3.57-3.57h-19c-1.97,0-3.57,1.6-3.57,3.57s1.6,3.57,3.57,3.57h6.21
						c-0.39,0.57-0.63,1.27-0.63,2.02c0,0.75,0.23,1.44,0.63,2.02h-2.02c-1.97,0-3.57,1.6-3.57,3.57c0,1.13,0.53,2.14,1.35,2.79
						c-0.82,0.65-1.35,1.66-1.35,2.79s0.53,2.14,1.35,2.79c-0.82,0.65-1.35,1.66-1.35,2.79s0.53,2.14,1.35,2.79
						c-0.82,0.65-1.35,1.66-1.35,2.79c0,1.97,1.6,3.57,3.57,3.57h9.14c2.41,2.58,5.83,4.19,9.63,4.19c7.27,0,13.19-5.92,13.19-13.19
						C111.51,74.15,107.42,69.04,101.85,67.49z M103.53,61.27c1.11,0,2.02,0.9,2.02,2.02s-0.9,2.02-2.02,2.02h-4.96H84.52
						c-1.11,0-2.02-0.9-2.02-2.02s0.9-2.02,2.02-2.02H103.53z M75.37,59.72c-1.11,0-2.02-0.9-2.02-2.02c0-1.11,0.9-2.02,2.02-2.02
						h19c1.11,0,2.02,0.9,2.02,2.02c0,1.11-0.9,2.02-2.02,2.02H75.37z M79.56,66.86h19c0.31,0,0.61,0.07,0.88,0.2
						c-0.37-0.03-0.74-0.05-1.11-0.05c-3.64,0-6.94,1.48-9.33,3.88h-9.44c-1.11,0-2.02-0.9-2.02-2.02S78.45,66.86,79.56,66.86z
						 M79.56,72.44h8.11c-0.88,1.21-1.56,2.57-1.99,4.03h-6.12c-1.11,0-2.02-0.9-2.02-2.02C77.54,73.35,78.45,72.44,79.56,72.44z
						 M79.56,78.03h5.76c-0.12,0.71-0.18,1.43-0.18,2.17c0,0.63,0.05,1.25,0.13,1.86h-5.72c-1.11,0-2.02-0.9-2.02-2.02
						S78.45,78.03,79.56,78.03z M79.56,87.65c-1.11,0-2.02-0.9-2.02-2.02s0.9-2.02,2.02-2.02h6.03c0.39,1.46,1.03,2.82,1.86,4.03
						H79.56z M98.33,91.83c-6.42,0-11.63-5.22-11.63-11.63c0-6.42,5.22-11.63,11.63-11.63c6.42,0,11.63,5.22,11.63,11.63
						C109.96,86.61,104.74,91.83,98.33,91.83z"/>
				</g>
			</g>
		</g>
	</g>
	<text transform="matrix(1 0 0 1 235.1166 133.095)"><tspan x="0" y="0" class="st1 st4 st5">McYouni</tspan><tspan x="371.88" y="0" class="st6 st4 st5">Tech</tspan></text>
</g>
</svg>
